<svg width="20993" height="20508" viewBox="0 0 20993 20508" fill="none" xmlns="http://www.w3.org/2000/svg">
<path d="M10734.6 10524.7L7085.55 10545.3C6950.32 10546.3 6817.12 10578.2 6696.09 10638.5C6575.06 10698.9 6469.4 10786 6387.14 10893.3C6304.88 11000.7 6248.2 11125.4 6221.41 11257.9C6194.63 11390.5 6198.45 11527.4 6232.58 11658.2C6489.52 12658.6 7070.69 13545.7 7885.23 14180.7C8699.78 14815.8 9701.79 15163 10734.6 15168.2C11777 15163.1 12787.8 14809.6 13606.2 14164C14424.5 13518.3 15003.6 12617.6 15251.1 11605C15281 11475.1 15281 11340.2 15251.3 11210.3C15221.5 11080.4 15162.8 10959 15079.4 10855C14996 10751.1 14890.2 10667.4 14769.8 10610.2C14649.5 10553 14517.7 10523.8 14384.5 10524.7H10734.6Z" fill="#8E04A7"/>
<path fill-rule="evenodd" clip-rule="evenodd" d="M484.666 10669.7C576.565 12933.7 1416.04 15103.4 2871.96 16840.1C4327.88 18576.7 6318.24 19782.5 8532.13 20268.9C10746 20755.3 13058.8 20495.1 15109 19528.9C17159.3 18562.6 18831.7 16944.7 19865 14928C20898.2 12911.3 21234.1 10609.3 20820.2 8381.54C20406.2 6153.83 19265.8 4125.89 17577 2614.51C15888.3 1103.14 13746.2 193.441 11485.6 27.5344C9224.91 -138.372 6972.93 448.852 5081.43 1697.48C5011.5 1743.65 4945.25 1795.16 4883.26 1851.55C3321.22 3275.71 5142.31 5764.12 6934.9 4653.27C8163.9 3820.31 9632.85 3414.51 11115.3 3498.41C12597.8 3582.3 14011.6 4151.23 15138.7 5117.51C16265.8 6083.8 17043.7 7393.8 17352.4 8845.6C17661.2 10297.4 17483.8 11810.4 16847.4 13151.5C16211.1 14492.5 15151.2 15587.1 13831 16266.6C12510.9 16946.1 11003.9 17172.8 9542.16 16911.6C8080.46 16650.5 6745.24 15916.1 5742.31 14821.6C4739.38 13727.1 4124.39 12333.2 3992.15 10854.9C3494.47 11277.7 2853.79 11494 2201.57 11459.6C1549.35 11425.2 935.03 11142.6 484.666 10669.7Z" fill="url(#paint0_angular_26_210)"/>
<g filter="url(#filter0_d_26_210)">
<path d="M2238.87 12572.5C3207.69 12572.5 3993.09 11787.5 3993.09 10819.1C3993.09 9850.64 3207.69 9065.57 2238.87 9065.57C1270.05 9065.57 484.666 9850.64 484.666 10819.1C484.666 11787.5 1270.05 12572.5 2238.87 12572.5Z" fill="#8E04A7"/>
</g>
<defs>
<filter id="filter0_d_26_210" x="0.628357" y="9053.77" width="4476.5" height="4475.05" filterUnits="userSpaceOnUse" color-interpolation-filters="sRGB">
<feFlood flood-opacity="0" result="BackgroundImageFix"/>
<feColorMatrix in="SourceAlpha" type="matrix" values="0 0 0 0 0 0 0 0 0 0 0 0 0 0 0 0 0 0 127 0" result="hardAlpha"/>
<feOffset dy="472.232"/>
<feGaussianBlur stdDeviation="242.019"/>
<feComposite in2="hardAlpha" operator="out"/>
<feColorMatrix type="matrix" values="0 0 0 0 0 0 0 0 0 0 0 0 0 0 0 0 0 0 0.3 0"/>
<feBlend mode="normal" in2="BackgroundImageFix" result="effect1_dropShadow_26_210"/>
<feBlend mode="normal" in="SourceGraphic" in2="effect1_dropShadow_26_210" result="shape"/>
</filter>
<radialGradient id="paint0_angular_26_210" cx="0" cy="0" r="1" gradientUnits="userSpaceOnUse" gradientTransform="translate(10604.5 10828.6) rotate(-176.75) scale(10136.1 10132)">
<stop stop-color="#8E04A7" stop-opacity="0.1"/>
<stop offset="0.443" stop-color="#8E04A7" stop-opacity="0.61"/>
<stop offset="1" stop-color="#8E04A7"/>
</radialGradient>
</defs>
</svg>
