<svg width="20745" height="20290" viewBox="0 0 20745 20290" fill="none" xmlns="http://www.w3.org/2000/svg">
<path d="M10596 10412.9L6985.71 10433.2C6851.93 10434.2 6720.14 10465.8 6600.4 10525.5C6480.65 10585.1 6376.11 10671.4 6294.72 10777.5C6213.34 10883.7 6157.26 11007.1 6130.76 11138.2C6104.26 11269.4 6108.04 11404.8 6141.81 11534.3C6396.02 12524 6971.01 13401.7 7776.9 14030C8582.79 14658.3 9574.15 15001.8 10596 15007C11627.3 15001.9 12627.3 14652.2 13437 14013.4C14246.7 13374.6 14819.6 12483.5 15064.5 11481.7C15094 11353.2 15094.1 11219.7 15064.6 11091.2C15035.2 10962.6 14977.1 10842.5 14894.6 10739.6C14812.1 10636.8 14707.4 10554 14588.3 10497.4C14469.2 10440.8 14338.9 10411.9 14207 10412.9H10596Z" fill="white"/>
<path fill-rule="evenodd" clip-rule="evenodd" d="M455.004 10556.3C545.926 12796.2 1376.48 14942.9 2816.92 16661.1C4257.36 18379.3 6226.56 19572.2 8416.92 20053.4C10607.3 20534.7 12895.4 20277.2 14923.9 19321.3C16952.4 18365.3 18607 16764.6 19629.3 14769.3C20651.5 12774 20983.9 10496.5 20574.3 8292.45C20164.8 6088.42 19036.5 4082.03 17365.7 2586.72C15694.8 1091.41 13575.6 191.387 11339 27.2437C9102.34 -136.9 6874.3 444.083 5002.9 1679.43C4933.71 1725.11 4868.17 1776.08 4806.85 1831.87C3261.4 3240.89 5063.13 5702.85 6836.67 4603.8C8052.61 3779.71 9505.94 3378.22 10972.7 3461.22C12439.4 3544.22 13838.1 4107.1 14953.2 5063.12C16068.3 6019.13 16838 7315.2 17143.5 8751.57C17449 10187.9 17273.4 11684.9 16643.8 13011.7C16014.2 14338.5 14965.6 15421.4 13659.5 16093.7C12353.4 16766 10862.4 16990.2 9416.21 16731.9C7970.05 16473.5 6649.03 15746.9 5656.76 14664C4664.49 13581.1 4056.04 12202.1 3925.2 10739.5C3432.81 11157.8 2798.95 11371.8 2153.66 11337.8C1508.37 11303.7 900.581 11024.1 455.004 10556.3Z" fill="url(#paint0_angular_28_211)"/>
<g filter="url(#filter0_d_28_211)">
<path d="M2190.56 12438.9C3149.09 12438.9 3926.13 11662.2 3926.13 10704.1C3926.13 9745.93 3149.09 8969.21 2190.56 8969.21C1232.04 8969.21 455.004 9745.93 455.004 10704.1C455.004 11662.2 1232.04 12438.9 2190.56 12438.9Z" fill="white"/>
</g>
<defs>
<filter id="filter0_d_28_211" x="0.735077" y="8857.16" width="4379.66" height="4378.23" filterUnits="userSpaceOnUse" color-interpolation-filters="sRGB">
<feFlood flood-opacity="0" result="BackgroundImageFix"/>
<feColorMatrix in="SourceAlpha" type="matrix" values="0 0 0 0 0 0 0 0 0 0 0 0 0 0 0 0 0 0 127 0" result="hardAlpha"/>
<feOffset dy="342.216"/>
<feGaussianBlur stdDeviation="227.134"/>
<feComposite in2="hardAlpha" operator="out"/>
<feColorMatrix type="matrix" values="0 0 0 0 0 0 0 0 0 0 0 0 0 0 0 0 0 0 0.2 0"/>
<feBlend mode="normal" in2="BackgroundImageFix" result="effect1_dropShadow_28_211"/>
<feBlend mode="normal" in="SourceGraphic" in2="effect1_dropShadow_28_211" result="shape"/>
</filter>
<radialGradient id="paint0_angular_28_211" cx="0" cy="0" r="1" gradientUnits="userSpaceOnUse" gradientTransform="translate(10467.3 10713.5) rotate(-176.75) scale(10028.4 10024.3)">
<stop stop-color="white" stop-opacity="0.1"/>
<stop offset="0.443" stop-color="white" stop-opacity="0.61"/>
<stop offset="1" stop-color="white"/>
</radialGradient>
</defs>
</svg>
